# xmcd CD database file
#
# Track frame offsets:
#	150
#	26469
#	85224
#	109011
#	134915
#	167765
#
# Disc length: 2879 seconds
#
# Revision: 1
# Processed by: cddbd v1.5.1PL0 Copyright (c) Steve Scherf et al.
# Submitted via: CDex 1.51
#
DISCID=4a0b3d06
DTITLE=Miles Davis - Milestones
DYEAR=1967
DGENRE=Jazz
TTITLE0=Dr Jekyll
TTITLE1=Sid's Ahead
TTITLE2=Two Bass Hit
TTITLE3=Miles
TTITLE4=Billy Boy
TTITLE5=Straight, No Chaser
EXTD=YEAR: 1967
EXTT0=
EXTT1=
EXTT2=
EXTT3=
EXTT4=
EXTT5=
PLAYORDER=
